 <svg version="1.0" xmlns="http://www.w3.org/2000/svg"  width="300.000000pt" height="224.000000pt" viewBox="0 0 300.000000 224.000000"  preserveAspectRatio="xMidYMid meet">  <g transform="translate(0.000000,224.000000) scale(0.100000,-0.100000)" fill="#000000" stroke="none"> <path d="M0 1120 l0 -1120 1500 0 1500 0 0 1120 0 1120 -1500 0 -1500 -1 0 -1119z m1290 929 c0 -4 -14 -12 -30 -19 -17 -7 -71 -37 -121 -66 l-91 -54 -88 0 -88 0 -109 66 c-59 36 -109 68 -110 72 -2 4 141 7 317 7 176 0 320 -3 320 -6z m-580 -70 c47 -31 100 -64 118 -73 25 -13 31 -22 28 -39 -13 -58 -26 -129 -26 -135 0 -4 60 -6 132 -5 73 1 133 6 133 10 0 4 -6 39 -13 77 -7 37 -12 70 -10 71 2 2 46 29 98 60 52 32 106 66 119 76 13 11 25 18 27 16 2 -1 -5 -50 -16 -107 -10 -58 -16 -108 -14 -112 2 -4 20 -4 39 -1 20 3 35 1 35 -4 0 -5 -41 -104 -90 -219 -50 -115 -94 -218 -98 -228 -6 -13 -16 27 -33 125 l-25 144 -27 -52 -27 -53 -100 0 -100 0 -22 45 c-26 53 -38 57 -38 13 -1 -49 -36 -243 -42 -232 -3 5 -11 27 -18 49 -7 21 -50 124 -95 227 l-83 188 45 0 c38 0 44 3 39 18 -3 9 -10 49 -16 87 -6 39 -14 81 -17 94 -7 29 -8 29 97 -40z m1131 -388 c24 -10 62 -22 85 -26 35 -5 45 -2 71 19 31 26 32 26 212 26 l182 0 -6 -57 c-8 -87 -33 -404 -41 -520 l-7 -103 -428 0 -429 0 0 38 c0 68 -20 505 -25 549 -5 42 -4 43 43 67 42 23 59 25 173 26 103 0 135 -4 170 -19z m-801 -98 c0 -5 14 -102 30 -218 l30 -210 -67 -182 c-61 -164 -83 -208 -83 -170 0 6 -29 88 -64 181 l-64 169 31 219 30 218 79 0 c43 0 78 -3 78 -7z m-368 -881 c-8 -40 -8 -73 -1 -78 5 -3 7 -10 4 -15 -4 -5 -8 -29 -10 -54 -2 -24 -6 -49 -10 -55 -9 -14 -101 -12 -113 3 -5 6 -12 21 -14 32 -4 25 31 33 48 10 7 -9 21 -15 31 -13 16 3 18 14 17 96 l0 93 25 -3 c15 -2 25 -8 23 -16z m196 2 c20 -13 22 -24 22 -96 0 -95 -13 -118 -67 -118 -66 0 -73 10 -73 107 0 66 4 91 17 105 20 22 71 24 101 2z m223 0 c15 -19 13 -72 -4 -93 -9 -11 -9 -15 1 -18 16 -6 16 -75 0 -91 -7 -7 -37 -12 -67 -12 l-56 0 0 115 0 115 56 0 c40 0 61 -5 70 -16z m201 -1 c19 -17 26 -83 8 -83 -5 0 -10 -7 -10 -15 0 -8 5 -15 10 -15 6 0 10 -17 10 -38 0 -46 -18 -59 -86 -63 l-49 -3 -3 117 -3 117 52 0 c35 0 59 -6 71 -17z m216 1 c21 -14 23 -23 21 -97 -2 -97 -14 -117 -70 -117 -68 0 -69 2 -69 103 0 70 4 95 17 109 20 22 71 23 101 2z m201 -81 c12 -54 24 -108 27 -120 5 -19 3 -21 -18 -16 -12 4 -27 12 -31 20 -12 20 -45 16 -52 -7 -7 -23 -45 -27 -45 -6 0 8 7 45 16 83 31 138 33 143 58 143 21 0 25 -9 45 -97z m223 80 c21 -18 25 -82 6 -101 -8 -8 -8 -15 1 -26 7 -8 11 -31 9 -52 -2 -31 -7 -38 -25 -39 -21 -1 -23 3 -23 42 0 36 -3 43 -20 43 -17 0 -20 -7 -20 -40 0 -36 -2 -40 -25 -40 l-25 0 0 115 0 115 52 0 c34 0 58 -6 70 -17z m218 2 c15 -18 14 -183 -1 -201 -6 -7 -34 -14 -64 -16 l-54 -3 -3 118 -3 117 56 0 c38 0 61 -5 69 -15z m126 -7 c5 -13 7 -26 6 -30 -1 -5 2 -8 7 -8 5 0 14 14 21 30 9 21 19 30 36 30 30 0 30 -4 -4 -65 l-27 -50 30 -57 c16 -31 27 -59 24 -62 -13 -13 -49 9 -58 35 -5 16 -12 29 -15 29 -3 0 -12 -16 -20 -35 -10 -24 -22 -35 -35 -35 -29 0 -26 20 9 79 16 28 25 53 21 56 -8 4 -51 89 -51 100 0 3 11 5 24 5 17 0 27 -7 32 -22z"/> <path d="M831 2012 l-63 -3 46 -30 c43 -27 54 -29 141 -29 77 0 103 4 140 22 25 12 44 26 43 30 -3 9 -198 15 -307 10z"/> <path d="M666 1890 l7 -79 -30 -18 -30 -17 29 -65 c28 -60 49 -109 53 -121 1 -3 11 -27 23 -53 12 -27 22 -54 22 -60 1 -29 19 22 25 68 8 56 28 95 50 95 8 0 27 -18 41 -40 l27 -40 81 0 81 0 20 36 c24 44 48 59 65 39 6 -8 13 -20 14 -27 1 -7 4 -17 8 -23 3 -5 9 -36 13 -68 9 -69 15 -63 59 48 15 39 32 76 38 83 6 6 7 12 3 12 -4 0 0 11 9 25 9 14 13 25 10 25 -4 0 0 8 8 18 17 21 18 57 1 57 -7 0 -19 9 -27 21 -13 17 -13 33 -5 88 6 37 9 69 7 71 -1 1 -40 -21 -85 -51 l-81 -53 9 -38 c5 -21 9 -54 9 -74 0 -33 -3 -37 -37 -48 -24 -8 -78 -11 -147 -8 -117 4 -138 14 -131 60 2 12 6 43 10 69 l6 48 -58 36 c-32 21 -60 40 -63 44 -3 3 -13 9 -23 13 -17 6 -18 2 -11 -73z"/> <path d="M2001 1553 c-13 -10 -41 -35 -64 -55 -37 -35 -45 -38 -101 -39 -34 -1 -70 -2 -81 -3 -11 -1 -52 -3 -91 -4 -85 -2 -74 19 -104 -212 -12 -91 -27 -189 -35 -218 -10 -40 -11 -54 -2 -57 7 -2 185 -3 397 -2 l385 2 2 35 c1 19 4 64 8 100 13 143 35 413 35 441 l0 29 -163 0 c-140 0 -166 -2 -186 -17z"/> <path d="M1493 1538 c-5 -7 -6 -26 -2 -43 l7 -30 1 31 c0 16 6 35 13 42 8 8 8 12 1 12 -6 0 -15 -6 -20 -12z"/> <path d="M1534 1531 c-2 -2 -4 -29 -5 -60 0 -31 -5 -83 -9 -116 -22 -154 -33 -322 -22 -341 10 -16 11 -12 12 27 0 25 11 132 25 237 14 105 25 196 25 202 0 6 61 10 168 10 162 0 169 1 190 23 l21 22 -200 0 c-111 0 -202 -2 -205 -4z"/> <path d="M1491 1363 c1 -50 3 -61 9 -43 12 36 12 110 0 110 -6 0 -10 -29 -9 -67z"/> <path d="M910 1463 c0 -5 -5 -35 -10 -68 -6 -33 -13 -85 -16 -115 -3 -30 -8 -58 -10 -62 -2 -3 -7 -42 -10 -86 -6 -77 -4 -83 41 -203 25 -68 49 -127 54 -131 4 -5 22 34 41 85 18 50 40 105 48 122 14 27 16 78 8 160 -8 81 -39 272 -48 288 -6 12 -21 17 -53 17 -25 0 -45 -3 -45 -7z"/> <path d="M790 510 c0 -68 1 -70 25 -70 24 0 25 2 25 70 0 68 -1 70 -25 70 -24 0 -25 -2 -25 -70z"/> <path d="M1028 583 c-11 -3 -18 -14 -18 -29 0 -19 5 -24 25 -24 20 0 25 5 25 24 0 28 -7 34 -32 29z"/> <path d="M1028 493 c-11 -3 -18 -14 -18 -29 0 -21 4 -25 22 -22 23 3 37 34 21 47 -4 4 -16 6 -25 4z"/> <path d="M1220 558 c0 -21 5 -28 20 -28 15 0 20 7 20 28 0 21 -5 28 -20 28 -15 0 -20 -7 -20 -28z"/> <path d="M1238 493 c-11 -3 -18 -14 -18 -29 0 -34 36 -33 42 1 6 28 1 33 -24 28z"/> <path d="M1430 513 c0 -72 0 -73 25 -73 26 0 26 1 23 72 -3 66 -5 72 -25 73 -22 2 -23 -2 -23 -72z"/> <path d="M1661 554 c0 -11 3 -14 6 -6 3 7 2 16 -1 19 -3 4 -6 -2 -5 -13z"/> <path d="M1654 505 c-8 -19 2 -45 16 -45 5 0 10 14 10 30 0 31 -16 41 -26 15z"/> <path d="M1860 553 c0 -26 4 -33 20 -33 16 0 20 7 20 33 0 26 -4 33 -20 33 -16 0 -20 -7 -20 -33z"/> <path d="M2070 509 c0 -67 1 -70 23 -67 20 3 22 9 25 71 3 66 3 67 -23 67 -24 0 -25 -2 -25 -71z"/> </g> </svg> 