<?xml version="1.0" standalone="no"?>
<!DOCTYPE svg PUBLIC "-//W3C//DTD SVG 20010904//EN"
 "http://www.w3.org/TR/2001/REC-SVG-20010904/DTD/svg10.dtd">
<svg version="1.0" xmlns="http://www.w3.org/2000/svg"
 width="300.000000pt" height="224.000000pt" viewBox="0 0 300.000000 224.000000"
 preserveAspectRatio="xMidYMid meet">
<metadata>
Created by potrace 1.10, written by Peter Selinger 2001-2011
</metadata>
<g transform="translate(0.000000,224.000000) scale(0.100000,-0.100000)"
fill="#000000" stroke="none">
<path d="M650 2050 c1 -3 49 -34 107 -69 106 -63 106 -63 196 -68 89 -4 89 -4
156 35 36 22 90 51 119 66 28 14 52 30 52 34 0 4 -142 7 -315 7 -173 0 -315
-2 -315 -5z m460 -50 c0 -41 -228 -59 -276 -21 -13 10 -20 21 -17 25 11 10
293 7 293 -4z"/>
<path d="M613 2018 c3 -13 11 -52 17 -88 6 -36 13 -75 15 -87 5 -21 2 -23 -35
-23 -22 0 -40 -4 -40 -9 0 -4 36 -91 80 -191 44 -101 85 -201 92 -222 6 -21
14 -38 18 -38 7 0 40 196 40 237 0 41 17 33 38 -17 l21 -50 100 0 101 0 26 53
c15 28 29 48 30 42 2 -5 13 -68 24 -140 12 -71 23 -131 25 -133 2 -2 12 21 23
50 11 29 54 132 96 228 42 96 76 179 76 184 0 5 -18 6 -40 2 -22 -3 -40 -3
-40 1 1 15 30 178 36 196 8 26 -10 21 -63 -16 -27 -19 -77 -51 -113 -72 -36
-21 -66 -39 -68 -40 -2 -2 3 -34 10 -71 7 -38 13 -73 13 -77 0 -5 -60 -9 -133
-10 -150 -2 -140 -10 -117 93 7 36 13 65 12 66 -26 12 -209 129 -217 139 -18
22 -33 18 -27 -7z m137 -111 c59 -36 56 -26 49 -135 -2 -33 3 -48 19 -65 20
-19 34 -22 135 -23 163 -2 183 12 172 121 l-7 60 50 32 c83 54 82 54 82 -19 0
-52 4 -68 20 -83 20 -19 26 -54 12 -70 -5 -6 -28 -56 -51 -113 -43 -101 -44
-102 -57 -76 -8 14 -11 30 -8 35 3 5 1 9 -5 9 -6 0 -8 6 -5 13 2 7 -7 24 -21
37 l-25 24 -43 -42 c-42 -41 -45 -42 -109 -42 -63 0 -67 2 -97 35 -17 19 -37
35 -45 35 -21 0 -53 -45 -61 -86 -4 -21 -10 -33 -15 -28 -16 16 -100 216 -100
239 0 12 10 30 21 41 18 16 21 27 16 77 -4 39 -2 57 6 57 7 0 37 -15 67 -33z"/>
<path d="M1498 1585 l-47 -25 5 -52 c6 -71 24 -472 24 -531 l0 -47 430 0 430
0 0 48 c0 40 23 326 45 570 l6 62 -184 0 -184 0 -24 -26 c-21 -23 -28 -25 -73
-18 -27 3 -67 15 -90 25 -33 15 -65 19 -166 18 -113 0 -130 -2 -172 -24z m838
-39 c3 -8 -1 -99 -10 -203 -8 -103 -18 -226 -22 -273 -3 -47 -8 -87 -11 -90
-9 -9 -746 -11 -756 -1 -5 5 -3 45 7 102 8 52 18 119 21 149 12 97 32 201 41
210 5 5 74 10 153 11 l144 1 30 31 c72 74 77 75 245 76 123 1 154 -2 158 -13z
m-406 -19 c0 -30 -37 -36 -202 -37 -167 0 -168 0 -169 -22 0 -13 -13 -120 -28
-238 -30 -230 -51 -267 -33 -57 17 191 33 341 37 355 6 16 395 15 395 -1z
m-429 -204 c-8 -14 -10 -5 -11 38 0 31 3 59 8 63 11 12 14 -82 3 -101z"/>
<path d="M853 1281 l-31 -218 64 -169 c35 -93 64 -175 64 -181 0 -24 20 -13
26 15 4 15 33 96 66 181 l58 154 -30 213 c-16 117 -30 215 -30 218 0 3 -35 6
-78 6 l-78 0 -31 -219z m144 167 c11 -14 15 -40 43 -253 10 -77 15 -144 11
-150 -3 -5 -22 -53 -41 -105 -21 -56 -41 -95 -49 -95 -8 0 -30 45 -55 113
l-42 112 26 183 c14 100 29 188 33 195 5 6 21 12 36 12 16 0 33 -6 38 -12z"/>
<path d="M623 538 c2 -84 0 -93 -17 -96 -10 -2 -23 3 -28 12 -10 18 -43 21
-53 6 -4 -6 1 -22 9 -35 14 -21 24 -25 66 -25 28 0 52 5 57 13 4 6 9 48 10 92
1 44 4 89 5 100 2 15 -4 21 -24 23 l-27 3 2 -93z"/>
<path d="M767 612 c-13 -14 -17 -39 -17 -109 0 -101 1 -103 69 -103 58 0 71
21 71 118 0 72 -2 83 -22 96 -30 22 -81 20 -101 -2z m73 -97 c0 -73 -1 -75
-25 -75 -24 0 -25 2 -25 68 0 74 3 82 32 82 16 0 18 -9 18 -75z"/>
<path d="M965 515 l0 -115 56 0 c30 0 60 5 67 12 16 16 15 85 0 91 -10 3 -8 9
5 24 9 11 17 31 17 45 0 39 -29 58 -91 58 l-54 0 0 -115z m93 42 c3 -23 0 -27
-22 -27 -21 0 -26 5 -26 23 0 13 3 27 7 31 15 14 38 0 41 -27z m2 -93 c0 -19
-5 -24 -25 -24 -20 0 -25 5 -25 24 0 15 7 26 18 29 25 5 32 -1 32 -29z"/>
<path d="M1172 513 l3 -117 50 3 c27 1 58 7 67 12 21 11 24 59 6 90 -10 17
-10 23 0 26 19 7 15 68 -6 86 -12 11 -36 17 -71 17 l-52 0 3 -117z m90 72 c13
-13 -5 -55 -23 -55 -14 0 -19 7 -19 30 0 22 5 30 18 30 10 0 21 -2 24 -5z m2
-123 c-4 -13 -14 -22 -25 -22 -25 0 -26 47 -1 53 24 5 32 -5 26 -31z"/>
<path d="M1407 612 c-13 -14 -17 -39 -17 -109 0 -101 1 -103 69 -103 58 0 71
21 71 118 0 72 -2 83 -22 96 -30 22 -81 20 -101 -2z m71 -99 c3 -72 3 -73 -23
-73 -25 0 -25 1 -25 76 0 72 1 75 23 72 20 -3 22 -9 25 -75z"/>
<path d="M1631 593 c-26 -98 -42 -183 -36 -193 10 -17 33 -11 40 10 3 11 14
20 23 20 10 0 25 -9 35 -20 24 -28 51 -27 44 3 -3 12 -16 66 -28 120 -20 88
-24 97 -45 97 -18 0 -25 -8 -33 -37z m49 -103 c0 -16 -5 -30 -10 -30 -14 0
-24 26 -16 45 10 26 26 16 26 -15z"/>
<path d="M1810 517 c0 -63 3 -116 6 -119 3 -3 14 -4 25 -1 15 4 19 14 19 44 0
32 4 39 19 39 16 0 20 -8 23 -42 2 -35 7 -43 23 -43 16 0 21 8 23 38 2 21 -2
45 -9 53 -9 11 -9 18 -1 26 7 7 12 28 12 48 0 51 -24 70 -88 70 l-52 0 0 -113z
m90 38 c0 -28 -4 -35 -20 -35 -16 0 -20 7 -20 35 0 28 4 35 20 35 16 0 20 -7
20 -35z"/>
<path d="M2024 614 c3 -9 6 -61 6 -117 l0 -102 52 4 c29 1 59 8 66 13 16 14
17 189 0 206 -7 7 -38 12 -71 12 -50 0 -58 -2 -53 -16z m91 -99 c0 -65 -2 -70
-22 -73 -22 -3 -23 0 -23 66 0 72 4 85 30 80 12 -3 15 -18 15 -73z"/>
<path d="M2220 624 c0 -3 12 -29 26 -59 l27 -54 -27 -47 c-31 -56 -33 -74 -5
-74 13 0 25 11 35 35 8 19 17 35 20 35 3 0 10 -13 15 -30 10 -28 43 -49 57
-36 3 4 -7 33 -23 65 l-28 59 27 51 c32 61 32 61 3 61 -16 0 -28 -10 -38 -32
l-15 -31 -13 31 c-10 23 -20 32 -37 32 -13 0 -24 -3 -24 -6z"/>
</g>
</svg>
